<mxfile host="app.diagrams.net" modified="2023-05-29T19:33:58.120Z" agent="Mozilla/5.0 (Windows NT 10.0; Win64; x64) AppleWebKit/537.36 (KHTML, like Gecko) Chrome/113.0.0.0 Safari/537.36" etag="ykYbBS1PeRIO5kByjrpX" version="21.3.5" type="google">
  <diagram name="PÃ¡gina-1" id="9y39xeztmIVc6rfJi7bK">
    <mxGraphModel grid="1" page="1" gridSize="10" guides="1" tooltips="1" connect="1" arrows="1" fold="1" pageScale="1" pageWidth="827" pageHeight="1169" math="0" shadow="0">
      <root>
        <mxCell id="0" />
        <mxCell id="1" parent="0" />
        <mxCell id="63l84nXPRgjBxLZogKqd-1" value="Usuario" style="swimlane;fontStyle=1;align=center;verticalAlign=top;childLayout=stackLayout;horizontal=1;startSize=26;horizontalStack=0;resizeParent=1;resizeParentMax=0;resizeLast=0;collapsible=1;marginBottom=0;whiteSpace=wrap;html=1;" vertex="1" parent="1">
          <mxGeometry x="-543" y="-438" width="260" height="476" as="geometry">
            <mxRectangle x="-610" y="-180" width="90" height="30" as="alternateBounds" />
          </mxGeometry>
        </mxCell>
        <mxCell id="63l84nXPRgjBxLZogKqd-2" value="- String nombre" style="text;strokeColor=none;fillColor=none;align=left;verticalAlign=top;spacingLeft=4;spacingRight=4;overflow=hidden;rotatable=0;points=[[0,0.5],[1,0.5]];portConstraint=eastwest;whiteSpace=wrap;html=1;" vertex="1" parent="63l84nXPRgjBxLZogKqd-1">
          <mxGeometry y="26" width="260" height="26" as="geometry" />
        </mxCell>
        <mxCell id="63l84nXPRgjBxLZogKqd-74" value="- int monedas" style="text;strokeColor=none;fillColor=none;align=left;verticalAlign=top;spacingLeft=4;spacingRight=4;overflow=hidden;rotatable=0;points=[[0,0.5],[1,0.5]];portConstraint=eastwest;whiteSpace=wrap;html=1;" vertex="1" parent="63l84nXPRgjBxLZogKqd-1">
          <mxGeometry y="52" width="260" height="26" as="geometry" />
        </mxCell>
        <mxCell id="63l84nXPRgjBxLZogKqd-5" value="- double tiempo" style="text;strokeColor=none;fillColor=none;align=left;verticalAlign=top;spacingLeft=4;spacingRight=4;overflow=hidden;rotatable=0;points=[[0,0.5],[1,0.5]];portConstraint=eastwest;whiteSpace=wrap;html=1;" vertex="1" parent="63l84nXPRgjBxLZogKqd-1">
          <mxGeometry y="78" width="260" height="26" as="geometry" />
        </mxCell>
        <mxCell id="63l84nXPRgjBxLZogKqd-6" value="- String preferencia" style="text;strokeColor=none;fillColor=none;align=left;verticalAlign=top;spacingLeft=4;spacingRight=4;overflow=hidden;rotatable=0;points=[[0,0.5],[1,0.5]];portConstraint=eastwest;whiteSpace=wrap;html=1;" vertex="1" parent="63l84nXPRgjBxLZogKqd-1">
          <mxGeometry y="104" width="260" height="26" as="geometry" />
        </mxCell>
        <mxCell id="ZTYXktpASrzNgjM4dLij-1" value="- List&amp;lt;Oferta&amp;gt; ofertasCompradas" style="text;strokeColor=none;fillColor=none;align=left;verticalAlign=top;spacingLeft=4;spacingRight=4;overflow=hidden;rotatable=0;points=[[0,0.5],[1,0.5]];portConstraint=eastwest;whiteSpace=wrap;html=1;" vertex="1" parent="63l84nXPRgjBxLZogKqd-1">
          <mxGeometry y="130" width="260" height="26" as="geometry" />
        </mxCell>
        <mxCell id="63l84nXPRgjBxLZogKqd-3" value="" style="line;strokeWidth=1;fillColor=none;align=left;verticalAlign=middle;spacingTop=-1;spacingLeft=3;spacingRight=3;rotatable=0;labelPosition=right;points=[];portConstraint=eastwest;strokeColor=inherit;" vertex="1" parent="63l84nXPRgjBxLZogKqd-1">
          <mxGeometry y="156" width="260" height="8" as="geometry" />
        </mxCell>
        <mxCell id="eL55IHgGYcoXu1R8JF3x-9" value="+ consumirMonedas(int cant) : void" style="text;strokeColor=none;fillColor=none;align=left;verticalAlign=top;spacingLeft=4;spacingRight=4;overflow=hidden;rotatable=0;points=[[0,0.5],[1,0.5]];portConstraint=eastwest;whiteSpace=wrap;html=1;" vertex="1" parent="63l84nXPRgjBxLZogKqd-1">
          <mxGeometry y="164" width="260" height="26" as="geometry" />
        </mxCell>
        <mxCell id="63l84nXPRgjBxLZogKqd-75" value="+ consumirTiempo(double cant) : void" style="text;strokeColor=none;fillColor=none;align=left;verticalAlign=top;spacingLeft=4;spacingRight=4;overflow=hidden;rotatable=0;points=[[0,0.5],[1,0.5]];portConstraint=eastwest;whiteSpace=wrap;html=1;" vertex="1" parent="63l84nXPRgjBxLZogKqd-1">
          <mxGeometry y="190" width="260" height="26" as="geometry" />
        </mxCell>
        <mxCell id="ZTYXktpASrzNgjM4dLij-9" value="+ agregarCompra(Oferta oferta) : void" style="text;strokeColor=none;fillColor=none;align=left;verticalAlign=top;spacingLeft=4;spacingRight=4;overflow=hidden;rotatable=0;points=[[0,0.5],[1,0.5]];portConstraint=eastwest;whiteSpace=wrap;html=1;" vertex="1" parent="63l84nXPRgjBxLZogKqd-1">
          <mxGeometry y="216" width="260" height="26" as="geometry" />
        </mxCell>
        <mxCell id="ZTYXktpASrzNgjM4dLij-2" value="+ getNombre() : String" style="text;strokeColor=none;fillColor=none;align=left;verticalAlign=top;spacingLeft=4;spacingRight=4;overflow=hidden;rotatable=0;points=[[0,0.5],[1,0.5]];portConstraint=eastwest;whiteSpace=wrap;html=1;" vertex="1" parent="63l84nXPRgjBxLZogKqd-1">
          <mxGeometry y="242" width="260" height="26" as="geometry" />
        </mxCell>
        <mxCell id="63l84nXPRgjBxLZogKqd-4" value="+ getMonedas() : int" style="text;strokeColor=none;fillColor=none;align=left;verticalAlign=top;spacingLeft=4;spacingRight=4;overflow=hidden;rotatable=0;points=[[0,0.5],[1,0.5]];portConstraint=eastwest;whiteSpace=wrap;html=1;" vertex="1" parent="63l84nXPRgjBxLZogKqd-1">
          <mxGeometry y="268" width="260" height="26" as="geometry" />
        </mxCell>
        <mxCell id="63l84nXPRgjBxLZogKqd-7" value="+ getTiempo() : double" style="text;strokeColor=none;fillColor=none;align=left;verticalAlign=top;spacingLeft=4;spacingRight=4;overflow=hidden;rotatable=0;points=[[0,0.5],[1,0.5]];portConstraint=eastwest;whiteSpace=wrap;html=1;" vertex="1" parent="63l84nXPRgjBxLZogKqd-1">
          <mxGeometry y="294" width="260" height="26" as="geometry" />
        </mxCell>
        <mxCell id="63l84nXPRgjBxLZogKqd-8" value="+ getPreferencia() : String&lt;br&gt;" style="text;strokeColor=none;fillColor=none;align=left;verticalAlign=top;spacingLeft=4;spacingRight=4;overflow=hidden;rotatable=0;points=[[0,0.5],[1,0.5]];portConstraint=eastwest;whiteSpace=wrap;html=1;" vertex="1" parent="63l84nXPRgjBxLZogKqd-1">
          <mxGeometry y="320" width="260" height="26" as="geometry" />
        </mxCell>
        <mxCell id="ZTYXktpASrzNgjM4dLij-7" value="+ getOfertasCompradas() : List&amp;lt;Oferta&amp;gt;" style="text;strokeColor=none;fillColor=none;align=left;verticalAlign=top;spacingLeft=4;spacingRight=4;overflow=hidden;rotatable=0;points=[[0,0.5],[1,0.5]];portConstraint=eastwest;whiteSpace=wrap;html=1;" vertex="1" parent="63l84nXPRgjBxLZogKqd-1">
          <mxGeometry y="346" width="260" height="26" as="geometry" />
        </mxCell>
        <mxCell id="ZTYXktpASrzNgjM4dLij-3" value="+ setNombre(String nombre) : void" style="text;strokeColor=none;fillColor=none;align=left;verticalAlign=top;spacingLeft=4;spacingRight=4;overflow=hidden;rotatable=0;points=[[0,0.5],[1,0.5]];portConstraint=eastwest;whiteSpace=wrap;html=1;" vertex="1" parent="63l84nXPRgjBxLZogKqd-1">
          <mxGeometry y="372" width="260" height="26" as="geometry" />
        </mxCell>
        <mxCell id="ZTYXktpASrzNgjM4dLij-4" value="+ setMonedas(int monedas) : void" style="text;strokeColor=none;fillColor=none;align=left;verticalAlign=top;spacingLeft=4;spacingRight=4;overflow=hidden;rotatable=0;points=[[0,0.5],[1,0.5]];portConstraint=eastwest;whiteSpace=wrap;html=1;" vertex="1" parent="63l84nXPRgjBxLZogKqd-1">
          <mxGeometry y="398" width="260" height="26" as="geometry" />
        </mxCell>
        <mxCell id="ZTYXktpASrzNgjM4dLij-5" value="+ setTiempo(double tiempo) : void" style="text;strokeColor=none;fillColor=none;align=left;verticalAlign=top;spacingLeft=4;spacingRight=4;overflow=hidden;rotatable=0;points=[[0,0.5],[1,0.5]];portConstraint=eastwest;whiteSpace=wrap;html=1;" vertex="1" parent="63l84nXPRgjBxLZogKqd-1">
          <mxGeometry y="424" width="260" height="26" as="geometry" />
        </mxCell>
        <mxCell id="ZTYXktpASrzNgjM4dLij-6" value="+ setPreferencia(String preferencia) : void" style="text;strokeColor=none;fillColor=none;align=left;verticalAlign=top;spacingLeft=4;spacingRight=4;overflow=hidden;rotatable=0;points=[[0,0.5],[1,0.5]];portConstraint=eastwest;whiteSpace=wrap;html=1;" vertex="1" parent="63l84nXPRgjBxLZogKqd-1">
          <mxGeometry y="450" width="260" height="26" as="geometry" />
        </mxCell>
        <mxCell id="63l84nXPRgjBxLZogKqd-9" value="Atraccion" style="swimlane;fontStyle=1;align=center;verticalAlign=top;childLayout=stackLayout;horizontal=1;startSize=26;horizontalStack=0;resizeParent=1;resizeParentMax=0;resizeLast=0;collapsible=1;marginBottom=0;whiteSpace=wrap;html=1;" vertex="1" parent="1">
          <mxGeometry x="371" y="120.41" width="170" height="160" as="geometry" />
        </mxCell>
        <mxCell id="63l84nXPRgjBxLZogKqd-80" value="- int cupos" style="text;strokeColor=none;fillColor=none;align=left;verticalAlign=top;spacingLeft=4;spacingRight=4;overflow=hidden;rotatable=0;points=[[0,0.5],[1,0.5]];portConstraint=eastwest;whiteSpace=wrap;html=1;" vertex="1" parent="63l84nXPRgjBxLZogKqd-9">
          <mxGeometry y="26" width="170" height="24" as="geometry" />
        </mxCell>
        <mxCell id="ZTYXktpASrzNgjM4dLij-29" value="- List&amp;lt;String&amp;gt; &lt;i&gt;LISTA_TIPOS&lt;/i&gt;" style="text;strokeColor=none;fillColor=none;align=left;verticalAlign=top;spacingLeft=4;spacingRight=4;overflow=hidden;rotatable=0;points=[[0,0.5],[1,0.5]];portConstraint=eastwest;whiteSpace=wrap;html=1;" vertex="1" parent="63l84nXPRgjBxLZogKqd-9">
          <mxGeometry y="50" width="170" height="24" as="geometry" />
        </mxCell>
        <mxCell id="63l84nXPRgjBxLZogKqd-11" value="" style="line;strokeWidth=1;fillColor=none;align=left;verticalAlign=middle;spacingTop=-1;spacingLeft=3;spacingRight=3;rotatable=0;labelPosition=right;points=[];portConstraint=eastwest;strokeColor=inherit;" vertex="1" parent="63l84nXPRgjBxLZogKqd-9">
          <mxGeometry y="74" width="170" height="8" as="geometry" />
        </mxCell>
        <mxCell id="ZTYXktpASrzNgjM4dLij-28" value="+ getCupos() : int&lt;br&gt;" style="text;strokeColor=none;fillColor=none;align=left;verticalAlign=top;spacingLeft=4;spacingRight=4;overflow=hidden;rotatable=0;points=[[0,0.5],[1,0.5]];portConstraint=eastwest;whiteSpace=wrap;html=1;" vertex="1" parent="63l84nXPRgjBxLZogKqd-9">
          <mxGeometry y="82" width="170" height="26" as="geometry" />
        </mxCell>
        <mxCell id="63l84nXPRgjBxLZogKqd-85" value="+ setCupos(int cupos) : void" style="text;strokeColor=none;fillColor=none;align=left;verticalAlign=top;spacingLeft=4;spacingRight=4;overflow=hidden;rotatable=0;points=[[0,0.5],[1,0.5]];portConstraint=eastwest;whiteSpace=wrap;html=1;" vertex="1" parent="63l84nXPRgjBxLZogKqd-9">
          <mxGeometry y="108" width="170" height="26" as="geometry" />
        </mxCell>
        <mxCell id="ZTYXktpASrzNgjM4dLij-31" value="+ setTipo(String tipo) : void" style="text;strokeColor=none;fillColor=none;align=left;verticalAlign=top;spacingLeft=4;spacingRight=4;overflow=hidden;rotatable=0;points=[[0,0.5],[1,0.5]];portConstraint=eastwest;whiteSpace=wrap;html=1;" vertex="1" parent="63l84nXPRgjBxLZogKqd-9">
          <mxGeometry y="134" width="170" height="26" as="geometry" />
        </mxCell>
        <mxCell id="63l84nXPRgjBxLZogKqd-13" value="(abstract)Promocion" style="swimlane;fontStyle=1;align=center;verticalAlign=top;childLayout=stackLayout;horizontal=1;startSize=26;horizontalStack=0;resizeParent=1;resizeParentMax=0;resizeLast=0;collapsible=1;marginBottom=0;whiteSpace=wrap;html=1;" vertex="1" parent="1">
          <mxGeometry x="-304" y="130" width="240" height="156" as="geometry" />
        </mxCell>
        <mxCell id="63l84nXPRgjBxLZogKqd-14" value="- List&amp;lt;Atraccion&amp;gt; atracciones" style="text;strokeColor=none;fillColor=none;align=left;verticalAlign=top;spacingLeft=4;spacingRight=4;overflow=hidden;rotatable=0;points=[[0,0.5],[1,0.5]];portConstraint=eastwest;whiteSpace=wrap;html=1;" vertex="1" parent="63l84nXPRgjBxLZogKqd-13">
          <mxGeometry y="26" width="240" height="24" as="geometry" />
        </mxCell>
        <mxCell id="ZTYXktpASrzNgjM4dLij-32" value="- int precioSinDescuento" style="text;strokeColor=none;fillColor=none;align=left;verticalAlign=top;spacingLeft=4;spacingRight=4;overflow=hidden;rotatable=0;points=[[0,0.5],[1,0.5]];portConstraint=eastwest;whiteSpace=wrap;html=1;" vertex="1" parent="63l84nXPRgjBxLZogKqd-13">
          <mxGeometry y="50" width="240" height="20" as="geometry" />
        </mxCell>
        <mxCell id="63l84nXPRgjBxLZogKqd-15" value="" style="line;strokeWidth=1;fillColor=none;align=left;verticalAlign=middle;spacingTop=-1;spacingLeft=3;spacingRight=3;rotatable=0;labelPosition=right;points=[];portConstraint=eastwest;strokeColor=inherit;" vertex="1" parent="63l84nXPRgjBxLZogKqd-13">
          <mxGeometry y="70" width="240" height="8" as="geometry" />
        </mxCell>
        <mxCell id="63l84nXPRgjBxLZogKqd-119" value="+ getPrecioSinDescuento() : int" style="text;strokeColor=none;fillColor=none;align=left;verticalAlign=top;spacingLeft=4;spacingRight=4;overflow=hidden;rotatable=0;points=[[0,0.5],[1,0.5]];portConstraint=eastwest;whiteSpace=wrap;html=1;" vertex="1" parent="63l84nXPRgjBxLZogKqd-13">
          <mxGeometry y="78" width="240" height="26" as="geometry" />
        </mxCell>
        <mxCell id="63l84nXPRgjBxLZogKqd-99" value="+ getAtracciones() : List&amp;lt;Atraccion&amp;gt;" style="text;strokeColor=none;fillColor=none;align=left;verticalAlign=top;spacingLeft=4;spacingRight=4;overflow=hidden;rotatable=0;points=[[0,0.5],[1,0.5]];portConstraint=eastwest;whiteSpace=wrap;html=1;" vertex="1" parent="63l84nXPRgjBxLZogKqd-13">
          <mxGeometry y="104" width="240" height="26" as="geometry" />
        </mxCell>
        <mxCell id="PD_Ae8FP5WuY63PDW7dq-1" value="+ aplicarDescuento" style="text;strokeColor=none;fillColor=none;align=left;verticalAlign=top;spacingLeft=4;spacingRight=4;overflow=hidden;rotatable=0;points=[[0,0.5],[1,0.5]];portConstraint=eastwest;whiteSpace=wrap;html=1;" vertex="1" parent="63l84nXPRgjBxLZogKqd-13">
          <mxGeometry y="130" width="240" height="26" as="geometry" />
        </mxCell>
        <mxCell id="63l84nXPRgjBxLZogKqd-21" value="Archivo" style="swimlane;fontStyle=1;align=center;verticalAlign=top;childLayout=stackLayout;horizontal=1;startSize=26;horizontalStack=0;resizeParent=1;resizeParentMax=0;resizeLast=0;collapsible=1;marginBottom=0;whiteSpace=wrap;html=1;" vertex="1" parent="1">
          <mxGeometry x="-170" y="-680" width="310" height="130" as="geometry" />
        </mxCell>
        <mxCell id="63l84nXPRgjBxLZogKqd-22" value="- rutaArchivo" style="text;strokeColor=none;fillColor=none;align=left;verticalAlign=top;spacingLeft=4;spacingRight=4;overflow=hidden;rotatable=0;points=[[0,0.5],[1,0.5]];portConstraint=eastwest;whiteSpace=wrap;html=1;" vertex="1" parent="63l84nXPRgjBxLZogKqd-21">
          <mxGeometry y="26" width="310" height="26" as="geometry" />
        </mxCell>
        <mxCell id="63l84nXPRgjBxLZogKqd-23" value="" style="line;strokeWidth=1;fillColor=none;align=left;verticalAlign=middle;spacingTop=-1;spacingLeft=3;spacingRight=3;rotatable=0;labelPosition=right;points=[];portConstraint=eastwest;strokeColor=inherit;" vertex="1" parent="63l84nXPRgjBxLZogKqd-21">
          <mxGeometry y="52" width="310" height="8" as="geometry" />
        </mxCell>
        <mxCell id="63l84nXPRgjBxLZogKqd-24" value="+ grabarResultado(ArrayList&amp;lt;oferta&amp;gt; compras) : void&lt;br&gt;+ leerUsuarios() : ArrayList&amp;lt;Usuario&amp;gt;&lt;br&gt;+ leerPromociones() : ArrayList&amp;lt;Promocion&amp;gt;&lt;br&gt;+ leerAtraciones() : ArraList&amp;lt;Atraccion&amp;gt;" style="text;strokeColor=none;fillColor=none;align=left;verticalAlign=top;spacingLeft=4;spacingRight=4;overflow=hidden;rotatable=0;points=[[0,0.5],[1,0.5]];portConstraint=eastwest;whiteSpace=wrap;html=1;" vertex="1" parent="63l84nXPRgjBxLZogKqd-21">
          <mxGeometry y="60" width="310" height="70" as="geometry" />
        </mxCell>
        <mxCell id="63l84nXPRgjBxLZogKqd-29" value="(abstract)Oferta" style="swimlane;fontStyle=1;align=center;verticalAlign=top;childLayout=stackLayout;horizontal=1;startSize=26;horizontalStack=0;resizeParent=1;resizeParentMax=0;resizeLast=0;collapsible=1;marginBottom=0;whiteSpace=wrap;html=1;" vertex="1" parent="1">
          <mxGeometry x="220" y="-360" width="220" height="372" as="geometry" />
        </mxCell>
        <mxCell id="63l84nXPRgjBxLZogKqd-30" value="- String nombre&lt;br&gt;" style="text;strokeColor=none;fillColor=none;align=left;verticalAlign=top;spacingLeft=4;spacingRight=4;overflow=hidden;rotatable=0;points=[[0,0.5],[1,0.5]];portConstraint=eastwest;whiteSpace=wrap;html=1;" vertex="1" parent="63l84nXPRgjBxLZogKqd-29">
          <mxGeometry y="26" width="220" height="26" as="geometry" />
        </mxCell>
        <mxCell id="ZTYXktpASrzNgjM4dLij-13" value="- int precioFinal" style="text;strokeColor=none;fillColor=none;align=left;verticalAlign=top;spacingLeft=4;spacingRight=4;overflow=hidden;rotatable=0;points=[[0,0.5],[1,0.5]];portConstraint=eastwest;whiteSpace=wrap;html=1;" vertex="1" parent="63l84nXPRgjBxLZogKqd-29">
          <mxGeometry y="52" width="220" height="26" as="geometry" />
        </mxCell>
        <mxCell id="ZTYXktpASrzNgjM4dLij-12" value="- double duracion&lt;br&gt;" style="text;strokeColor=none;fillColor=none;align=left;verticalAlign=top;spacingLeft=4;spacingRight=4;overflow=hidden;rotatable=0;points=[[0,0.5],[1,0.5]];portConstraint=eastwest;whiteSpace=wrap;html=1;" vertex="1" parent="63l84nXPRgjBxLZogKqd-29">
          <mxGeometry y="78" width="220" height="26" as="geometry" />
        </mxCell>
        <mxCell id="ZTYXktpASrzNgjM4dLij-11" value="- String tipo" style="text;strokeColor=none;fillColor=none;align=left;verticalAlign=top;spacingLeft=4;spacingRight=4;overflow=hidden;rotatable=0;points=[[0,0.5],[1,0.5]];portConstraint=eastwest;whiteSpace=wrap;html=1;" vertex="1" parent="63l84nXPRgjBxLZogKqd-29">
          <mxGeometry y="104" width="220" height="26" as="geometry" />
        </mxCell>
        <mxCell id="63l84nXPRgjBxLZogKqd-31" value="" style="line;strokeWidth=1;fillColor=none;align=left;verticalAlign=middle;spacingTop=-1;spacingLeft=3;spacingRight=3;rotatable=0;labelPosition=right;points=[];portConstraint=eastwest;strokeColor=inherit;" vertex="1" parent="63l84nXPRgjBxLZogKqd-29">
          <mxGeometry y="130" width="220" height="8" as="geometry" />
        </mxCell>
        <mxCell id="ZTYXktpASrzNgjM4dLij-23" value="+ compareTo(Oferta oferta) : int" style="text;strokeColor=none;fillColor=none;align=left;verticalAlign=top;spacingLeft=4;spacingRight=4;overflow=hidden;rotatable=0;points=[[0,0.5],[1,0.5]];portConstraint=eastwest;whiteSpace=wrap;html=1;" vertex="1" parent="63l84nXPRgjBxLZogKqd-29">
          <mxGeometry y="138" width="220" height="26" as="geometry" />
        </mxCell>
        <mxCell id="ZTYXktpASrzNgjM4dLij-14" value="+ getNombre() : String" style="text;strokeColor=none;fillColor=none;align=left;verticalAlign=top;spacingLeft=4;spacingRight=4;overflow=hidden;rotatable=0;points=[[0,0.5],[1,0.5]];portConstraint=eastwest;whiteSpace=wrap;html=1;" vertex="1" parent="63l84nXPRgjBxLZogKqd-29">
          <mxGeometry y="164" width="220" height="26" as="geometry" />
        </mxCell>
        <mxCell id="63l84nXPRgjBxLZogKqd-86" value="+ getPrecio() : int" style="text;strokeColor=none;fillColor=none;align=left;verticalAlign=top;spacingLeft=4;spacingRight=4;overflow=hidden;rotatable=0;points=[[0,0.5],[1,0.5]];portConstraint=eastwest;whiteSpace=wrap;html=1;" vertex="1" parent="63l84nXPRgjBxLZogKqd-29">
          <mxGeometry y="190" width="220" height="26" as="geometry" />
        </mxCell>
        <mxCell id="ZTYXktpASrzNgjM4dLij-15" value="+ getDuracion() : double" style="text;strokeColor=none;fillColor=none;align=left;verticalAlign=top;spacingLeft=4;spacingRight=4;overflow=hidden;rotatable=0;points=[[0,0.5],[1,0.5]];portConstraint=eastwest;whiteSpace=wrap;html=1;" vertex="1" parent="63l84nXPRgjBxLZogKqd-29">
          <mxGeometry y="216" width="220" height="26" as="geometry" />
        </mxCell>
        <mxCell id="N-OEjip8osyzHrrx3CTr-1" value="" style="endArrow=diamondThin;endFill=0;endSize=24;html=1;rounded=0;entryX=1;entryY=0.5;entryDx=0;entryDy=0;" edge="1" parent="63l84nXPRgjBxLZogKqd-29">
          <mxGeometry width="160" relative="1" as="geometry">
            <mxPoint y="229" as="sourcePoint" />
            <mxPoint x="-170" y="228.5" as="targetPoint" />
          </mxGeometry>
        </mxCell>
        <mxCell id="ZTYXktpASrzNgjM4dLij-16" value="+ getTipo() : String" style="text;strokeColor=none;fillColor=none;align=left;verticalAlign=top;spacingLeft=4;spacingRight=4;overflow=hidden;rotatable=0;points=[[0,0.5],[1,0.5]];portConstraint=eastwest;whiteSpace=wrap;html=1;" vertex="1" parent="63l84nXPRgjBxLZogKqd-29">
          <mxGeometry y="242" width="220" height="26" as="geometry" />
        </mxCell>
        <mxCell id="63l84nXPRgjBxLZogKqd-87" value="+ getTiempoNecesario() : int" style="text;strokeColor=none;fillColor=none;align=left;verticalAlign=top;spacingLeft=4;spacingRight=4;overflow=hidden;rotatable=0;points=[[0,0.5],[1,0.5]];portConstraint=eastwest;whiteSpace=wrap;html=1;" vertex="1" parent="63l84nXPRgjBxLZogKqd-29">
          <mxGeometry y="268" width="220" height="26" as="geometry" />
        </mxCell>
        <mxCell id="ZTYXktpASrzNgjM4dLij-17" value="+ setNombre(String nombre) : void" style="text;strokeColor=none;fillColor=none;align=left;verticalAlign=top;spacingLeft=4;spacingRight=4;overflow=hidden;rotatable=0;points=[[0,0.5],[1,0.5]];portConstraint=eastwest;whiteSpace=wrap;html=1;" vertex="1" parent="63l84nXPRgjBxLZogKqd-29">
          <mxGeometry y="294" width="220" height="26" as="geometry" />
        </mxCell>
        <mxCell id="ZTYXktpASrzNgjM4dLij-20" value="+ setPrecio(int monedas) : void" style="text;strokeColor=none;fillColor=none;align=left;verticalAlign=top;spacingLeft=4;spacingRight=4;overflow=hidden;rotatable=0;points=[[0,0.5],[1,0.5]];portConstraint=eastwest;whiteSpace=wrap;html=1;" vertex="1" parent="63l84nXPRgjBxLZogKqd-29">
          <mxGeometry y="320" width="220" height="26" as="geometry" />
        </mxCell>
        <mxCell id="ZTYXktpASrzNgjM4dLij-21" value="+ setDuracion(double tiempo) : void" style="text;strokeColor=none;fillColor=none;align=left;verticalAlign=top;spacingLeft=4;spacingRight=4;overflow=hidden;rotatable=0;points=[[0,0.5],[1,0.5]];portConstraint=eastwest;whiteSpace=wrap;html=1;" vertex="1" parent="63l84nXPRgjBxLZogKqd-29">
          <mxGeometry y="346" width="220" height="26" as="geometry" />
        </mxCell>
        <mxCell id="63l84nXPRgjBxLZogKqd-34" value="Extends" style="endArrow=block;endSize=16;endFill=0;html=1;rounded=0;entryX=0.377;entryY=1.269;entryDx=0;entryDy=0;entryPerimeter=0;exitX=0.5;exitY=0;exitDx=0;exitDy=0;" edge="1" parent="1" source="63l84nXPRgjBxLZogKqd-13" target="ZTYXktpASrzNgjM4dLij-21">
          <mxGeometry x="0.0729" width="160" relative="1" as="geometry">
            <mxPoint x="136" y="90.41" as="sourcePoint" />
            <mxPoint x="302.05999999999995" y="37.011999999999944" as="targetPoint" />
            <Array as="points">
              <mxPoint x="-184" y="80" />
              <mxPoint x="302" y="80.41" />
            </Array>
            <mxPoint as="offset" />
          </mxGeometry>
        </mxCell>
        <mxCell id="63l84nXPRgjBxLZogKqd-37" value="Extends" style="endArrow=block;endSize=16;endFill=0;html=1;rounded=0;exitX=0.5;exitY=0;exitDx=0;exitDy=0;entryX=0.382;entryY=1.231;entryDx=0;entryDy=0;entryPerimeter=0;" edge="1" parent="1" source="63l84nXPRgjBxLZogKqd-9" target="ZTYXktpASrzNgjM4dLij-21">
          <mxGeometry width="160" relative="1" as="geometry">
            <mxPoint x="136" y="90.41" as="sourcePoint" />
            <mxPoint x="300" y="40" as="targetPoint" />
            <Array as="points">
              <mxPoint x="456" y="80.41" />
              <mxPoint x="304" y="80.41" />
            </Array>
          </mxGeometry>
        </mxCell>
        <mxCell id="63l84nXPRgjBxLZogKqd-44" value="" style="endArrow=diamondThin;endFill=0;endSize=24;html=1;rounded=0;exitX=0.5;exitY=0;exitDx=0;exitDy=0;" edge="1" parent="1" source="63l84nXPRgjBxLZogKqd-29">
          <mxGeometry width="160" relative="1" as="geometry">
            <mxPoint x="346" y="-360" as="sourcePoint" />
            <mxPoint x="330" y="-410" as="targetPoint" />
          </mxGeometry>
        </mxCell>
        <mxCell id="63l84nXPRgjBxLZogKqd-50" value="Â«interfaceÂ»&lt;br&gt;&lt;b&gt;IComparable&lt;/b&gt;" style="html=1;whiteSpace=wrap;" vertex="1" parent="1">
          <mxGeometry x="570" y="-234" width="110" height="50" as="geometry" />
        </mxCell>
        <mxCell id="63l84nXPRgjBxLZogKqd-51" value="" style="endArrow=block;dashed=1;endFill=0;endSize=12;html=1;rounded=0;entryX=1;entryY=0.5;entryDx=0;entryDy=0;exitX=0;exitY=0.5;exitDx=0;exitDy=0;" edge="1" parent="1" source="63l84nXPRgjBxLZogKqd-50" target="ZTYXktpASrzNgjM4dLij-23">
          <mxGeometry width="160" relative="1" as="geometry">
            <mxPoint x="230" as="sourcePoint" />
            <mxPoint x="390" as="targetPoint" />
          </mxGeometry>
        </mxCell>
        <mxCell id="63l84nXPRgjBxLZogKqd-52" value="Sistema" style="swimlane;fontStyle=1;align=center;verticalAlign=top;childLayout=stackLayout;horizontal=1;startSize=26;horizontalStack=0;resizeParent=1;resizeParentMax=0;resizeLast=0;collapsible=1;marginBottom=0;whiteSpace=wrap;html=1;" vertex="1" parent="1">
          <mxGeometry x="-110" y="-170" width="160" height="112" as="geometry" />
        </mxCell>
        <mxCell id="63l84nXPRgjBxLZogKqd-53" value="- List&amp;lt;Oferta&amp;gt; ofertas" style="text;strokeColor=none;fillColor=none;align=left;verticalAlign=top;spacingLeft=4;spacingRight=4;overflow=hidden;rotatable=0;points=[[0,0.5],[1,0.5]];portConstraint=eastwest;whiteSpace=wrap;html=1;" vertex="1" parent="63l84nXPRgjBxLZogKqd-52">
          <mxGeometry y="26" width="160" height="26" as="geometry" />
        </mxCell>
        <mxCell id="N-OEjip8osyzHrrx3CTr-2" value="- List&amp;lt;Usuario&amp;gt; usuarios" style="text;strokeColor=none;fillColor=none;align=left;verticalAlign=top;spacingLeft=4;spacingRight=4;overflow=hidden;rotatable=0;points=[[0,0.5],[1,0.5]];portConstraint=eastwest;whiteSpace=wrap;html=1;" vertex="1" parent="63l84nXPRgjBxLZogKqd-52">
          <mxGeometry y="52" width="160" height="26" as="geometry" />
        </mxCell>
        <mxCell id="63l84nXPRgjBxLZogKqd-54" value="" style="line;strokeWidth=1;fillColor=none;align=left;verticalAlign=middle;spacingTop=-1;spacingLeft=3;spacingRight=3;rotatable=0;labelPosition=right;points=[];portConstraint=eastwest;strokeColor=inherit;" vertex="1" parent="63l84nXPRgjBxLZogKqd-52">
          <mxGeometry y="78" width="160" height="8" as="geometry" />
        </mxCell>
        <mxCell id="63l84nXPRgjBxLZogKqd-55" value="+ ofertarActividades() : void" style="text;strokeColor=none;fillColor=none;align=left;verticalAlign=top;spacingLeft=4;spacingRight=4;overflow=hidden;rotatable=0;points=[[0,0.5],[1,0.5]];portConstraint=eastwest;whiteSpace=wrap;html=1;" vertex="1" parent="63l84nXPRgjBxLZogKqd-52">
          <mxGeometry y="86" width="160" height="26" as="geometry" />
        </mxCell>
        <mxCell id="63l84nXPRgjBxLZogKqd-57" value="Ofertador" style="swimlane;fontStyle=1;align=center;verticalAlign=top;childLayout=stackLayout;horizontal=1;startSize=26;horizontalStack=0;resizeParent=1;resizeParentMax=0;resizeLast=0;collapsible=1;marginBottom=0;whiteSpace=wrap;html=1;" vertex="1" parent="1">
          <mxGeometry x="220" y="-610" width="290" height="202" as="geometry" />
        </mxCell>
        <mxCell id="63l84nXPRgjBxLZogKqd-58" value="- List&amp;lt;Oferta&amp;gt; ofertas&lt;br&gt;" style="text;strokeColor=none;fillColor=none;align=left;verticalAlign=top;spacingLeft=4;spacingRight=4;overflow=hidden;rotatable=0;points=[[0,0.5],[1,0.5]];portConstraint=eastwest;whiteSpace=wrap;html=1;" vertex="1" parent="63l84nXPRgjBxLZogKqd-57">
          <mxGeometry y="26" width="290" height="26" as="geometry" />
        </mxCell>
        <mxCell id="ZTYXktpASrzNgjM4dLij-10" value="- Usuario usuario" style="text;strokeColor=none;fillColor=none;align=left;verticalAlign=top;spacingLeft=4;spacingRight=4;overflow=hidden;rotatable=0;points=[[0,0.5],[1,0.5]];portConstraint=eastwest;whiteSpace=wrap;html=1;" vertex="1" parent="63l84nXPRgjBxLZogKqd-57">
          <mxGeometry y="52" width="290" height="26" as="geometry" />
        </mxCell>
        <mxCell id="63l84nXPRgjBxLZogKqd-91" value="- int indice" style="text;strokeColor=none;fillColor=none;align=left;verticalAlign=top;spacingLeft=4;spacingRight=4;overflow=hidden;rotatable=0;points=[[0,0.5],[1,0.5]];portConstraint=eastwest;whiteSpace=wrap;html=1;" vertex="1" parent="63l84nXPRgjBxLZogKqd-57">
          <mxGeometry y="78" width="290" height="26" as="geometry" />
        </mxCell>
        <mxCell id="63l84nXPRgjBxLZogKqd-59" value="" style="line;strokeWidth=1;fillColor=none;align=left;verticalAlign=middle;spacingTop=-1;spacingLeft=3;spacingRight=3;rotatable=0;labelPosition=right;points=[];portConstraint=eastwest;strokeColor=inherit;" vertex="1" parent="63l84nXPRgjBxLZogKqd-57">
          <mxGeometry y="104" width="290" height="8" as="geometry" />
        </mxCell>
        <mxCell id="63l84nXPRgjBxLZogKqd-60" value="- ordenarLista(List&amp;lt;Ofertas&amp;gt; ofertas) : void" style="text;strokeColor=none;fillColor=none;align=left;verticalAlign=top;spacingLeft=4;spacingRight=4;overflow=hidden;rotatable=0;points=[[0,0.5],[1,0.5]];portConstraint=eastwest;whiteSpace=wrap;html=1;" vertex="1" parent="63l84nXPRgjBxLZogKqd-57">
          <mxGeometry y="112" width="290" height="30" as="geometry" />
        </mxCell>
        <mxCell id="63l84nXPRgjBxLZogKqd-89" value="+ siguienteOferta() : Oferta" style="text;strokeColor=none;fillColor=none;align=left;verticalAlign=top;spacingLeft=4;spacingRight=4;overflow=hidden;rotatable=0;points=[[0,0.5],[1,0.5]];portConstraint=eastwest;whiteSpace=wrap;html=1;" vertex="1" parent="63l84nXPRgjBxLZogKqd-57">
          <mxGeometry y="142" width="290" height="30" as="geometry" />
        </mxCell>
        <mxCell id="63l84nXPRgjBxLZogKqd-92" value="+ tieneSiguienteOferta() : boolean" style="text;strokeColor=none;fillColor=none;align=left;verticalAlign=top;spacingLeft=4;spacingRight=4;overflow=hidden;rotatable=0;points=[[0,0.5],[1,0.5]];portConstraint=eastwest;whiteSpace=wrap;html=1;" vertex="1" parent="63l84nXPRgjBxLZogKqd-57">
          <mxGeometry y="172" width="290" height="30" as="geometry" />
        </mxCell>
        <mxCell id="63l84nXPRgjBxLZogKqd-65" value="DatosDescargados" style="html=1;whiteSpace=wrap;" vertex="1" parent="1">
          <mxGeometry x="-468" y="-590" width="110" height="50" as="geometry" />
        </mxCell>
        <mxCell id="63l84nXPRgjBxLZogKqd-66" value="" style="endArrow=diamondThin;endFill=0;endSize=24;html=1;rounded=0;exitX=0.469;exitY=0.002;exitDx=0;exitDy=0;exitPerimeter=0;" edge="1" parent="1" source="63l84nXPRgjBxLZogKqd-1">
          <mxGeometry width="160" relative="1" as="geometry">
            <mxPoint x="230" y="-120" as="sourcePoint" />
            <mxPoint x="-420" y="-540" as="targetPoint" />
          </mxGeometry>
        </mxCell>
        <mxCell id="63l84nXPRgjBxLZogKqd-68" value="ManejadorDeCupos" style="swimlane;fontStyle=1;align=center;verticalAlign=top;childLayout=stackLayout;horizontal=1;startSize=26;horizontalStack=0;resizeParent=1;resizeParentMax=0;resizeLast=0;collapsible=1;marginBottom=0;whiteSpace=wrap;html=1;" vertex="1" parent="1">
          <mxGeometry x="306" y="420" width="300" height="88" as="geometry" />
        </mxCell>
        <mxCell id="63l84nXPRgjBxLZogKqd-71" value="+ tengoCupoPara(Oferta oferta) : boolean&amp;nbsp;" style="text;strokeColor=none;fillColor=none;align=left;verticalAlign=top;spacingLeft=4;spacingRight=4;overflow=hidden;rotatable=0;points=[[0,0.5],[1,0.5]];portConstraint=eastwest;whiteSpace=wrap;html=1;" vertex="1" parent="63l84nXPRgjBxLZogKqd-68">
          <mxGeometry y="26" width="300" height="32" as="geometry" />
        </mxCell>
        <mxCell id="63l84nXPRgjBxLZogKqd-76" value="+ restarCupo(Oferta oferta) : void" style="text;strokeColor=none;fillColor=none;align=left;verticalAlign=top;spacingLeft=4;spacingRight=4;overflow=hidden;rotatable=0;points=[[0,0.5],[1,0.5]];portConstraint=eastwest;whiteSpace=wrap;html=1;" vertex="1" parent="63l84nXPRgjBxLZogKqd-68">
          <mxGeometry y="58" width="300" height="30" as="geometry" />
        </mxCell>
        <mxCell id="63l84nXPRgjBxLZogKqd-72" value="" style="endArrow=diamondThin;endFill=0;endSize=24;html=1;rounded=0;entryX=0.5;entryY=0;entryDx=0;entryDy=0;exitX=0.5;exitY=1;exitDx=0;exitDy=0;" edge="1" parent="1" source="63l84nXPRgjBxLZogKqd-9" target="63l84nXPRgjBxLZogKqd-68">
          <mxGeometry width="160" relative="1" as="geometry">
            <mxPoint x="456" y="302.4119999999999" as="sourcePoint" />
            <mxPoint x="196" y="280.40999999999997" as="targetPoint" />
          </mxGeometry>
        </mxCell>
        <mxCell id="63l84nXPRgjBxLZogKqd-100" value="Porcentual" style="swimlane;fontStyle=1;align=center;verticalAlign=top;childLayout=stackLayout;horizontal=1;startSize=26;horizontalStack=0;resizeParent=1;resizeParentMax=0;resizeLast=0;collapsible=1;marginBottom=0;whiteSpace=wrap;html=1;" vertex="1" parent="1">
          <mxGeometry x="-628" y="436" width="160" height="86" as="geometry" />
        </mxCell>
        <mxCell id="63l84nXPRgjBxLZogKqd-101" value="- int porcentaje" style="text;strokeColor=none;fillColor=none;align=left;verticalAlign=top;spacingLeft=4;spacingRight=4;overflow=hidden;rotatable=0;points=[[0,0.5],[1,0.5]];portConstraint=eastwest;whiteSpace=wrap;html=1;" vertex="1" parent="63l84nXPRgjBxLZogKqd-100">
          <mxGeometry y="26" width="160" height="26" as="geometry" />
        </mxCell>
        <mxCell id="63l84nXPRgjBxLZogKqd-102" value="" style="line;strokeWidth=1;fillColor=none;align=left;verticalAlign=middle;spacingTop=-1;spacingLeft=3;spacingRight=3;rotatable=0;labelPosition=right;points=[];portConstraint=eastwest;strokeColor=inherit;" vertex="1" parent="63l84nXPRgjBxLZogKqd-100">
          <mxGeometry y="52" width="160" height="8" as="geometry" />
        </mxCell>
        <mxCell id="63l84nXPRgjBxLZogKqd-103" value="+ getCosto() : int" style="text;strokeColor=none;fillColor=none;align=left;verticalAlign=top;spacingLeft=4;spacingRight=4;overflow=hidden;rotatable=0;points=[[0,0.5],[1,0.5]];portConstraint=eastwest;whiteSpace=wrap;html=1;" vertex="1" parent="63l84nXPRgjBxLZogKqd-100">
          <mxGeometry y="60" width="160" height="26" as="geometry" />
        </mxCell>
        <mxCell id="63l84nXPRgjBxLZogKqd-104" value="Absolutas" style="swimlane;fontStyle=1;align=center;verticalAlign=top;childLayout=stackLayout;horizontal=1;startSize=26;horizontalStack=0;resizeParent=1;resizeParentMax=0;resizeLast=0;collapsible=1;marginBottom=0;whiteSpace=wrap;html=1;" vertex="1" parent="1">
          <mxGeometry x="-274" y="436" width="160" height="86" as="geometry" />
        </mxCell>
        <mxCell id="63l84nXPRgjBxLZogKqd-105" value="- int precioPromo" style="text;strokeColor=none;fillColor=none;align=left;verticalAlign=top;spacingLeft=4;spacingRight=4;overflow=hidden;rotatable=0;points=[[0,0.5],[1,0.5]];portConstraint=eastwest;whiteSpace=wrap;html=1;" vertex="1" parent="63l84nXPRgjBxLZogKqd-104">
          <mxGeometry y="26" width="160" height="26" as="geometry" />
        </mxCell>
        <mxCell id="63l84nXPRgjBxLZogKqd-106" value="" style="line;strokeWidth=1;fillColor=none;align=left;verticalAlign=middle;spacingTop=-1;spacingLeft=3;spacingRight=3;rotatable=0;labelPosition=right;points=[];portConstraint=eastwest;strokeColor=inherit;" vertex="1" parent="63l84nXPRgjBxLZogKqd-104">
          <mxGeometry y="52" width="160" height="8" as="geometry" />
        </mxCell>
        <mxCell id="63l84nXPRgjBxLZogKqd-118" value="+ getCosto() : int" style="text;strokeColor=none;fillColor=none;align=left;verticalAlign=top;spacingLeft=4;spacingRight=4;overflow=hidden;rotatable=0;points=[[0,0.5],[1,0.5]];portConstraint=eastwest;whiteSpace=wrap;html=1;" vertex="1" parent="63l84nXPRgjBxLZogKqd-104">
          <mxGeometry y="60" width="160" height="26" as="geometry" />
        </mxCell>
        <mxCell id="63l84nXPRgjBxLZogKqd-108" value="AXB" style="swimlane;fontStyle=1;align=center;verticalAlign=top;childLayout=stackLayout;horizontal=1;startSize=26;horizontalStack=0;resizeParent=1;resizeParentMax=0;resizeLast=0;collapsible=1;marginBottom=0;whiteSpace=wrap;html=1;" vertex="1" parent="1">
          <mxGeometry x="6" y="432" width="180" height="86" as="geometry" />
        </mxCell>
        <mxCell id="63l84nXPRgjBxLZogKqd-109" value="- ArrayList&amp;lt;Atraccion&amp;gt; gratis" style="text;strokeColor=none;fillColor=none;align=left;verticalAlign=top;spacingLeft=4;spacingRight=4;overflow=hidden;rotatable=0;points=[[0,0.5],[1,0.5]];portConstraint=eastwest;whiteSpace=wrap;html=1;" vertex="1" parent="63l84nXPRgjBxLZogKqd-108">
          <mxGeometry y="26" width="180" height="26" as="geometry" />
        </mxCell>
        <mxCell id="63l84nXPRgjBxLZogKqd-110" value="" style="line;strokeWidth=1;fillColor=none;align=left;verticalAlign=middle;spacingTop=-1;spacingLeft=3;spacingRight=3;rotatable=0;labelPosition=right;points=[];portConstraint=eastwest;strokeColor=inherit;" vertex="1" parent="63l84nXPRgjBxLZogKqd-108">
          <mxGeometry y="52" width="180" height="8" as="geometry" />
        </mxCell>
        <mxCell id="63l84nXPRgjBxLZogKqd-117" value="+ getCosto() : int" style="text;strokeColor=none;fillColor=none;align=left;verticalAlign=top;spacingLeft=4;spacingRight=4;overflow=hidden;rotatable=0;points=[[0,0.5],[1,0.5]];portConstraint=eastwest;whiteSpace=wrap;html=1;" vertex="1" parent="63l84nXPRgjBxLZogKqd-108">
          <mxGeometry y="60" width="180" height="26" as="geometry" />
        </mxCell>
        <mxCell id="63l84nXPRgjBxLZogKqd-112" value="Extends" style="endArrow=block;endSize=16;endFill=0;html=1;rounded=0;exitX=0.5;exitY=0;exitDx=0;exitDy=0;" edge="1" parent="1">
          <mxGeometry width="160" relative="1" as="geometry">
            <mxPoint x="-547" y="436" as="sourcePoint" />
            <mxPoint x="-194" y="286" as="targetPoint" />
            <Array as="points">
              <mxPoint x="-547" y="386" />
              <mxPoint x="-194" y="386" />
            </Array>
          </mxGeometry>
        </mxCell>
        <mxCell id="63l84nXPRgjBxLZogKqd-113" value="Extends" style="endArrow=block;endSize=16;endFill=0;html=1;rounded=0;exitX=0.5;exitY=0;exitDx=0;exitDy=0;" edge="1" parent="1" source="63l84nXPRgjBxLZogKqd-104">
          <mxGeometry width="160" relative="1" as="geometry">
            <mxPoint x="-214" y="350" as="sourcePoint" />
            <mxPoint x="-200" y="290" as="targetPoint" />
          </mxGeometry>
        </mxCell>
        <mxCell id="63l84nXPRgjBxLZogKqd-114" value="Extends" style="endArrow=block;endSize=16;endFill=0;html=1;rounded=0;exitX=0.5;exitY=0;exitDx=0;exitDy=0;" edge="1" parent="1" source="63l84nXPRgjBxLZogKqd-108">
          <mxGeometry width="160" relative="1" as="geometry">
            <mxPoint x="-214" y="386" as="sourcePoint" />
            <mxPoint x="-200" y="290" as="targetPoint" />
            <Array as="points">
              <mxPoint x="96" y="386" />
              <mxPoint x="-194" y="386" />
            </Array>
          </mxGeometry>
        </mxCell>
        <mxCell id="ZTYXktpASrzNgjM4dLij-18" value="Â«interfaceÂ»&lt;br&gt;&lt;b&gt;IteratorOferta&lt;/b&gt;" style="html=1;whiteSpace=wrap;" vertex="1" parent="1">
          <mxGeometry x="304" y="-720" width="110" height="50" as="geometry" />
        </mxCell>
        <mxCell id="ZTYXktpASrzNgjM4dLij-19" value="" style="endArrow=block;dashed=1;endFill=0;endSize=12;html=1;rounded=0;exitX=0.5;exitY=1;exitDx=0;exitDy=0;" edge="1" parent="1" source="ZTYXktpASrzNgjM4dLij-18">
          <mxGeometry width="160" relative="1" as="geometry">
            <mxPoint x="-540" y="-508" as="sourcePoint" />
            <mxPoint x="360" y="-610" as="targetPoint" />
          </mxGeometry>
        </mxCell>
        <mxCell id="ZTYXktpASrzNgjM4dLij-24" value="" style="endArrow=diamondThin;endFill=0;endSize=24;html=1;rounded=0;entryX=1;entryY=0.5;entryDx=0;entryDy=0;exitX=0;exitY=0.5;exitDx=0;exitDy=0;" edge="1" parent="1" source="ZTYXktpASrzNgjM4dLij-13" target="ZTYXktpASrzNgjM4dLij-1">
          <mxGeometry width="160" relative="1" as="geometry">
            <mxPoint x="210" y="-270" as="sourcePoint" />
            <mxPoint x="-41" y="-280" as="targetPoint" />
          </mxGeometry>
        </mxCell>
        <mxCell id="N-OEjip8osyzHrrx3CTr-4" value="" style="endArrow=diamondThin;endFill=0;endSize=24;html=1;rounded=0;entryX=0;entryY=0.5;entryDx=0;entryDy=0;exitX=1;exitY=0.5;exitDx=0;exitDy=0;" edge="1" parent="1" source="63l84nXPRgjBxLZogKqd-8" target="N-OEjip8osyzHrrx3CTr-2">
          <mxGeometry width="160" relative="1" as="geometry">
            <mxPoint x="55" y="-118.5" as="sourcePoint" />
            <mxPoint x="-115" y="-119" as="targetPoint" />
          </mxGeometry>
        </mxCell>
        <mxCell id="N-OEjip8osyzHrrx3CTr-5" value="" style="endArrow=diamondThin;endFill=0;endSize=24;html=1;rounded=0;entryX=0;entryY=0.5;entryDx=0;entryDy=0;" edge="1" parent="1">
          <mxGeometry width="160" relative="1" as="geometry">
            <mxPoint x="-280" y="-420" as="sourcePoint" />
            <mxPoint x="220" y="-420" as="targetPoint" />
          </mxGeometry>
        </mxCell>
      </root>
    </mxGraphModel>
  </diagram>
</mxfile>
